# xmcd
#
# Track frame offsets:
#	182
#	13865
#	29715
#	45197
#	63430
#	78025
#	91552
#	110110
#	124305
#	140087
#	155002
#	171762
#	185292
#	204510
#	219687
#	233042
#	252485
#	263877
#
# Disc length: 3739 seconds
#
# Revision: 0
# Processed by: cddbd v1.4PL0 Copyright (c) Steve Scherf et al.
# Submitted via: MusicManager 7.0.3.0 
#
DISCID=fd0e9912
DTITLE=Various Artist - Country Music 1994
DYEAR=1994
DGENRE=country
TTITLE0=David Ball - Thinkin' Problem
TTITLE1=Travis Tritt - Ten Feet tall and Bulletproof
TTITLE2=Randy Travis - This Is Me
TTITLE3=Faith Hill - Piece Of My Heart 
TTITLE4=Greg Holland - Let Me Drive
TTITLE5=Jeff Foxworthy - Redneck Stomp
TTITLE6=Little Texas - My Love
TTITLE7=Victoria Shaw - Tears Dry
TTITLE8=Dwight Yoakam - Fast As You
TTITLE9=Faith Hill - Take Me As I Am
TTITLE10=Little Texas - Kick A Little
TTITLE11=David Ball - When The Though Of You Catches Up With Me
TTITLE12=Russ Taff - Winds Of change
TTITLE13=Randy Travis - Before You Kill Us All
TTITLE14=Dwight Yoakam - Pocket Of A Clown
TTITLE15=Travis Tritt - Foolish Pride
TTITLE16=Dan Seals - All Fired Up
TTITLE17=Shawn Camp - Fallin Never Felt So Good
EXTD=
EXTT0=
EXTT1=
EXTT2=
EXTT3=
EXTT4=
EXTT5=
EXTT6=
EXTT7=
EXTT8=
EXTT9=
EXTT10=
EXTT11=
EXTT12=
EXTT13=
EXTT14=
EXTT15=
EXTT16=
EXTT17=
PLAYORDER=
